<svg
  xmlns="http://www.w3.org/2000/svg"
  width="24"
  height="24"
  viewBox="0 0 24 24"
  fill="none"
  stroke="currentColor"
  stroke-width="2"
  stroke-linecap="round"
  stroke-linejoin="round"
>
  <path d="M18.4 6H5.6C4.72 6 4 6.58 4 7.29v6.42c0 .71.72 1.29 1.6 1.29h12.8c.88 0 1.6-.58 1.6-1.29V7.3c0-.72-.72-1.3-1.6-1.3" />
  <path d="M8 15V3.44C8 2.64 8.9 2 10 2h4c1.1 0 2 .65 2 1.44V15" />
  <path d="M4 19h16" />
  <path d="M6 19v2" />
  <path d="M10 19v2" />
  <path d="M14 19v2" />
  <path d="M18 19v2" />
</svg>