<svg
  xmlns="http://www.w3.org/2000/svg"
  width="24"
  height="24"
  viewBox="0 0 24 24"
  fill="none"
  stroke="currentColor"
  stroke-width="2"
  stroke-linecap="round"
  stroke-linejoin="round"
>
  <path d="m2.25 21.32 2.5-6.67A1 1 0 0 1 5.7 14h12.62a1 1 0 0 1 .93.65l2.5 6.67a.5.5 0 0 1-.46.68H2.72a.5.5 0 0 1-.47-.68" />
  <path d="M6 14a2 2 0 1 1 0-4h4" />
  <path d="M14 10h4a2 2 0 1 1 0 4" />
  <path d="M10 10V4a2 2 0 1 1 4 0v6" />
  <path d="m8 22 1-4" />
  <path d="m16 22-1-4" />
</svg>