<svg
  xmlns="http://www.w3.org/2000/svg"
  width="24"
  height="24"
  viewBox="0 0 24 24"
  fill="none"
  stroke="currentColor"
  stroke-width="2"
  stroke-linecap="round"
  stroke-linejoin="round"
>
  <path d="M12.02 21.98a.02.02 0 0 1-.04 0L2.02 9.03A.02.02 0 0 1 2.04 9h19.92a.02.02 0 0 1 .02.03z" />
  <path d="m2 9 3.4-5.11A2 2 0 0 1 7.08 3h9.86a2 2 0 0 1 1.66.89L22 9" />
  <path d="M10.67 3 8.3 8.3a2 2 0 0 0-.07 1.44L12 21" />
  <path d="m13.33 3 2.36 5.3a2 2 0 0 1 .07 1.44L12 21" />
</svg>