<svg
  xmlns="http://www.w3.org/2000/svg"
  width="24"
  height="24"
  viewBox="0 0 24 24"
  fill="none"
  stroke="currentColor"
  stroke-width="2"
  stroke-linecap="round"
  stroke-linejoin="round"
>
  <rect width="16" height="10" x="4" y="11" rx="2" />
  <path d="M5.5 11H4a1 1 0 0 1-1-1V8a1 1 0 0 1 1-1h16a1 1 0 0 1 1 1v2a1 1 0 0 1-1 1h-1.5" />
  <path d="M12 7v14" />
  <path d="M8 7 5.85 4.85A1.67 1.67 0 0 1 7.03 2h.42q.55 0 1.04.25l.34.16c.76.38 1.38 1 1.76 1.76L12 7" />
  <path d="m16 7 2.15-2.15A1.67 1.67 0 0 0 16.97 2h-.42q-.55 0-1.04.25l-.34.16c-.76.38-1.38 1-1.76 1.76L12 7" />
</svg>