<svg xmlns="http://www.w3.org/2000/svg" viewBox="0 0 24 24" width="24" height="24">
  <path d="M12 21.35L10.55 20.03C5.4 15.36 2 12.27 2 8.5C2 5.41 4.42 3 7.5 3C9.24 3 10.91 3.81 12 5.08C13.09 3.81 14.76 3 16.5 3C19.58 3 22 5.41 22 8.5C22 12.27 18.6 15.36 13.45 20.03L12 21.35Z" stroke="currentColor" stroke-width="2" fill="none" stroke-linecap="round" stroke-linejoin="round"/>
<svg
  xmlns="http://www.w3.org/2000/svg"
  width="24"
  height="24"
  viewBox="0 0 24 24"
  fill="none"
  stroke="currentColor"
  stroke-width="2"
  stroke-linecap="round"
  stroke-linejoin="round"
>
  <g clip-path="url(#a)">
    <path d="m11.958 7.692-1.183-1.27C7.639 3.053 2 5.272 2 9.874c0 1.451.623 2.834 1.71 3.795l8.098 7.16a.29.29 0 0 0 .384 0l8.097-7.16A5.07 5.07 0 0 0 22 9.875c0-4.602-5.639-6.82-8.775-3.454l-1.183 1.27a.06.06 0 0 1-.084 0Z" />
  </g>
  <defs>
    <clipPath id="a">
      <rect width="24" height="24" />
    </clipPath>
  </defs>
</svg>