<svg
  xmlns="http://www.w3.org/2000/svg"
  width="24"
  height="24"
  viewBox="0 0 24 24"
  fill="none"
  stroke="currentColor"
  stroke-width="2"
  stroke-linecap="round"
  stroke-linejoin="round"
>
  <path d="M10.71 14H4.3c-.72 0-1.3.45-1.3 1v5c0 .55.58 1 1.29 1h6.42c.71 0 1.29-.45 1.29-1v-5c0-.55-.58-1-1.29-1" />
  <path d="M20.29 14H16.7c-.39 0-.71.45-.71 1v5c0 .55.32 1 .71 1h3.58c.39 0 .71-.45.71-1v-5c0-.55-.32-1-.71-1" />
  <path d="M20 3H4a1 1 0 0 0-1 1v5a1 1 0 0 0 1 1h16a1 1 0 0 0 1-1V4a1 1 0 0 0-1-1" />
</svg>