<svg
  xmlns="http://www.w3.org/2000/svg"
  width="24"
  height="24"
  viewBox="0 0 24 24"
  fill="none"
  stroke="currentColor"
  stroke-width="2"
  stroke-linecap="round"
  stroke-linejoin="round"
>
  <path d="m12.04 12.94 3.2-5.03a3.84 3.84 0 1 0-6.48 0l3.2 5.03a.04.04 0 0 0 .08 0" />
  <circle cx="12" cy="5.5" r=".5" />
  <path d="m3 21 5.19-1.78a2 2 0 0 1 1.27-.01l4.83 1.59a2 2 0 0 0 1.25 0L21 19" />
  <path d="M21 11v8" />
  <path d="M3 14v7" />
  <path d="M9 11v8" />
  <path d="M15 14v6" />
  <path d="M9 10.5 3 14" />
  <path d="m13 12.5 1.19.82a2 2 0 0 0 2.05.13L21 11" />
</svg>