<svg
  xmlns="http://www.w3.org/2000/svg"
  width="24"
  height="24"
  viewBox="0 0 24 24"
  fill="none"
  stroke="currentColor"
  stroke-width="2"
  stroke-linecap="round"
  stroke-linejoin="round"
>
  <path d="m15.38 20.13-1.13.62-1.28.71a2 2 0 0 1-1.94 0l-7-3.89A2 2 0 0 1 3 15.82V8.18a2 2 0 0 1 1.03-1.75l7-3.89a2 2 0 0 1 1.94 0l7 3.89A2 2 0 0 1 21 8.18V11" />
  <path d="m17 16 1.84 1.84a.2.2 0 0 0 .3-.02L22 14" />
  <path d="m3.5 7.5 7.56 4a2 2 0 0 0 1.88 0l7.56-4" />
  <path d="M12 12v9" />
  <path d="m8.5 4.5 8 5" />
</svg>