<svg
  xmlns="http://www.w3.org/2000/svg"
  width="24"
  height="24"
  viewBox="0 0 24 24"
  fill="none"
  stroke="currentColor"
  stroke-width="2"
  stroke-linecap="round"
  stroke-linejoin="round"
>
  <path d="M7.36 2H3.13a1 1 0 0 0-.96.82C1.1 9.89 4.82 20.15 20.9 21.99a1 1 0 0 0 1.1-1v-5.16c0-.53-.4-.98-.92-1.03l-4.3-.4a1 1 0 0 0-.61.15L14 15.87a.2.2 0 0 1-.18 0 19 19 0 0 1-6.6-5.62l-.28-.39a.2.2 0 0 1 0-.25l1.22-1.66q.2-.28.2-.62v-4.3a1 1 0 0 0-1-1.03" />
  <path d="M16 2v5a1 1 0 0 0 1 1h5" />
  <path d="m17 7 5-5" />
</svg>