<svg
  xmlns="http://www.w3.org/2000/svg"
  width="24"
  height="24"
  viewBox="0 0 24 24"
  fill="none"
  stroke="currentColor"
  stroke-width="2"
  stroke-linecap="round"
  stroke-linejoin="round"
>
  <path d="M7.5 2.5H3.3a.95.95 0 0 0-.95.8C1.3 10.14 4.98 20.1 20.91 21.9a1 1 0 0 0 1.09-1v-5a1 1 0 0 0-.91-1l-4.26-.38a1 1 0 0 0-.61.14l-2.13 1.28a.2.2 0 0 1-.18 0 18.5 18.5 0 0 1-6.53-5.45l-.29-.38a.2.2 0 0 1 0-.24l1.21-1.6a1 1 0 0 0 .2-.6V3.5a1 1 0 0 0-1-1" />
  <path d="M13 6a4.18 4.18 0 0 1 5 4.1v.9" />
  <path d="M14 2h1a7 7 0 0 1 7 7v2" />
</svg>