<svg
  xmlns="http://www.w3.org/2000/svg"
  width="24"
  height="24"
  viewBox="0 0 24 24"
  fill="none"
  stroke="currentColor"
  stroke-width="2"
  stroke-linecap="round"
  stroke-linejoin="round"
>
  <path d="M7.362 2h-4.23a.966.966 0 0 0-.964.819c-1.062 7.066 2.651 17.334 18.73 19.175.587.067 1.102-.408 1.102-1.012v-5.153c0-.533-.398-.978-.918-1.027l-4.306-.4a1 1 0 0 0-.61.143l-2.154 1.32a.18.18 0 0 1-.18.007 18.8 18.8 0 0 1-6.593-5.62L6.95 9.86a.215.215 0 0 1 0-.254l1.219-1.66c.131-.179.202-.396.202-.62V3.032A1.02 1.02 0 0 0 7.362 2Z" />
  <path d="M22 8V3a1 1 0 0 0-1-1h-5" />
  <path d="m21 3-5 5" />
</svg>