<svg
  xmlns="http://www.w3.org/2000/svg"
  width="24"
  height="24"
  viewBox="0 0 24 24"
  fill="none"
  stroke="currentColor"
  stroke-width="2"
  stroke-linecap="round"
  stroke-linejoin="round"
>
  <path d="M12.8 22h-1.6a1 1 0 0 1-1-1v-1.82a2 2 0 0 0-3.09-1.68l-1.33.87a1 1 0 0 1-1.46-.43l-.94-2.1a1 1 0 0 1 .42-1.29l1.45-.8a2 2 0 0 0 0-3.5l-1.45-.8a1 1 0 0 1-.42-1.29l.94-2.1a1 1 0 0 1 1.46-.43l1.33.87a2 2 0 0 0 3.09-1.68V3a1 1 0 0 1 1-1h1.6a1 1 0 0 1 1 1v1.82a2 2 0 0 0 3.09 1.68l1.33-.87a1 1 0 0 1 1.46.43l.94 2.1a1 1 0 0 1-.42 1.29l-1.45.8a2 2 0 0 0 0 3.5l1.45.8a1 1 0 0 1 .42 1.29l-.94 2.1a1 1 0 0 1-1.46.43l-1.33-.87a2 2 0 0 0-3.09 1.68V21a1 1 0 0 1-1 1" />
  <circle cx="12" cy="12" r="3" />
</svg>