<svg
  xmlns="http://www.w3.org/2000/svg"
  width="24"
  height="24"
  viewBox="0 0 24 24"
  fill="none"
  stroke="currentColor"
  stroke-width="2"
  stroke-linecap="round"
  stroke-linejoin="round"
>
  <path d="M7 20a2 2 0 1 0 0-4 2 2 0 0 0 0 4" />
  <path d="M17 20a2 2 0 1 0 0-4 2 2 0 0 0 0 4" />
  <path d="M5 18H4a2 2 0 0 1-2-2v-5m12 7V6a2 2 0 0 0-2-2H8" />
  <path d="M4 2 2.13 5.74a.12.12 0 0 0 .14.17l2.51-.84a.12.12 0 0 1 .16.15L4 8.5" />
  <path d="M9 18h6" />
  <path d="M19 18h1a2 2 0 0 0 2-2v-3.54a2 2 0 0 0-.65-1.47l-3.78-3.46A2 2 0 0 0 16.22 7H14" />
</svg>