<svg
  xmlns="http://www.w3.org/2000/svg"
  width="24"
  height="24"
  viewBox="0 0 24 24"
  fill="none"
  stroke="currentColor"
  stroke-width="2"
  stroke-linecap="round"
  stroke-linejoin="round"
>
  <path d="M7 20a2 2 0 1 0 0-4 2 2 0 0 0 0 4" />
  <path d="M17 20a2 2 0 1 0 0-4 2 2 0 0 0 0 4" />
  <path d="M5 18H4c-1.1 0-2-.77-2-1.71V7.7C2 6.77 2.9 6 4 6h11.56a2 2 0 0 1 1.9 1.37L19 12" />
  <path d="M9 18h6" />
  <path d="M19.55 18H20a2 2 0 0 0 2-2v-.7a3 3 0 0 0-.83-2.08l-.28-.3a3 3 0 0 0-2.17-.92H14a1 1 0 0 1-1-1V6" />
</svg>