<svg
  xmlns="http://www.w3.org/2000/svg"
  width="24"
  height="24"
  viewBox="0 0 24 24"
  fill="none"
  stroke="currentColor"
  stroke-width="2"
  stroke-linecap="round"
  stroke-linejoin="round"
>
  <path d="M14.21 7H4.8a.77.77 0 0 0-.79.75v7.5c0 .41.35.75.79.75h9.42c.44 0 .79-.34.79-.75v-7.5a.77.77 0 0 0-.79-.75" />
  <path d="m15 12.1 3.7 1.8c.56.26 1.3-.02 1.3-.5V9.6c0-.48-.74-.76-1.3-.5L15 10.9" />
  <path d="m7 21 2.14-3.57a1 1 0 0 1 1.72 0L13 21" />
  <circle cx="6.5" cy="3.5" r="1.5" />
  <circle cx="11.5" cy="3.5" r="1.5" />
</svg>